PathFileType	4	(X/Y/Z)	/Users/niels/Desktop/University/Third Semester/Perception and Action/Exam/Gymnastics Motion Tracking/Code for Gym Tracking/Analyzed Data/Webcam_Backflip/id17_1_trajectory_Sports2D/id17_1_trajectory_Sports2D_px_person00.trc
DataRate	CameraRate	NumFrames	NumMarkers	Units	OrigDataRate	OrigDataStartFrame	OrigNumFrames
29.702970297029704	29.702970297029704	9	22	m	29.702970297029704	50	101
Frame#	Time	Hip			RHip			RKnee			RAnkle			RBigToe			RSmallToe			RHeel			LHip			LKnee			LAnkle			LBigToe			LSmallToe			LHeel			Neck			Head			Nose			RShoulder			RElbow			RWrist			LShoulder			LElbow			LWrist		
		X1	Y1	Z1	X2	Y2	Z2	X3	Y3	Z3	X4	Y4	Z4	X5	Y5	Z5	X6	Y6	Z6	X7	Y7	Z7	X8	Y8	Z8	X9	Y9	Z9	X10	Y10	Z10	X11	Y11	Z11	X12	Y12	Z12	X13	Y13	Z13	X14	Y14	Z14	X15	Y15	Z15	X16	Y16	Z16	X17	Y17	Z17	X18	Y18	Z18	X19	Y19	Z19	X20	Y20	Z20	X21	Y21	Z21	X22	Y22	Z22
50	1.6833333333333331	1.0007190931649512	-0.6341549806940887	0.0	0.9416101909421595	-0.6312553503207706	0.0	0.9455623947936276	-0.8929482683404302	0.0	0.9333373023771429	-1.0735747350627942	0.0	0.89664340122179	-1.1212576373551009	0.0	0.9529101764155286	-1.129465186901434	0.0	0.9384037031495385	-1.0919866296071334	0.0	1.0604170097546548	-0.628780456120975	0.0	1.063860413276747	-0.8946922173367706	0.0	1.0220320189712195	-1.0456447449137856	0.0	1.0250375910835157	-1.0867551168366874	0.0	1.068641058981546	-1.0855162067108663	0.0	1.0504735056648564	-1.068427600532602	0.0	1.001778270203805	-0.2525227558593228	0.0	0.9974530434007078	-0.10653739282219268	0.0	1.0056610647678605	-0.18012823256134347	0.0	0.8707535237882644	-0.3218692836333652	0.0	0.8247812184127291	-0.4738616246849404	0.0	0.8355193079083465	-0.5998025942711618	0.0	1.0905881281749497	-0.3058110231276099	0.0	1.1421074579113981	-0.4603311420177656	0.0	1.0847097505726244	-0.4942209250424707	0.0
51	1.7169999999999999	1.0009296919721695	-0.6324268239971732	0.0	0.9428945581521402	-0.6289876324198476	0.0	0.9434688949025964	-0.8838513304001959	0.0	0.9617128059275185	-1.080347702925904	0.0	0.9662194224887274	-1.1241521396097713	0.0	0.9527031124963495	-1.1245623665801783	0.0	0.9639223625711211	-1.0991303758038387	0.0	1.0595626138480763	-0.6278834513391128	0.0	1.0564012879570228	-0.8852222916713318	0.0	1.0488612598448814	-1.055987920897305	0.0	1.0140675549078497	-1.086628883208823	0.0	1.057733534770595	-1.0868394941633102	0.0	1.040338545083089	-1.069867394389308	0.0	1.0062762865238886	-0.2578667482846582	0.0	1.0016689946817654	-0.11349645718623048	0.0	1.00873862509316	-0.18737589322455012	0.0	0.9027485430036735	-0.3353146157550556	0.0	0.8534084211759866	-0.4763054939676566	0.0	0.8590332768876885	-0.5894662884899254	0.0	1.1283668142452181	-0.3204348150284569	0.0	1.1836475323923996	-0.46677716622890914	0.0	1.119525020132992	-0.4822111855927828	0.0
52	1.7506666666666666	1.0013019230373468	-0.6323206661233299	0.0	0.9442564406776678	-0.6284514680648905	0.0	0.941462424179083	-0.8766641449187621	0.0	0.9711964763517331	-1.0800532589782308	0.0	0.9980438947908079	-1.119874735126479	0.0	0.9525805540825572	-1.1181916119018434	0.0	0.9722899823044379	-1.0989856901657407	0.0	1.0589705016584658	-0.6285820803135667	0.0	1.0508163283111847	-0.878256247211782	0.0	1.0551084355473326	-1.0621100338735538	0.0	1.0041619159158826	-1.0872836128888057	0.0	1.046555610890507	-1.0890124755788462	0.0	1.0333727126667187	-1.072477501062546	0.0	1.010339892792529	-0.2647563714529846	0.0	1.0060314420879815	-0.12200723007257623	0.0	1.0120562494864505	-0.19602735589377165	0.0	0.917931997867278	-0.3433139024589103	0.0	0.8669360248960032	-0.47803139706312064	0.0	0.8668193491792404	-0.5841430928082597	0.0	1.143507000664021	-0.3300806896491589	0.0	1.202156586662946	-0.47221765578782005	0.0	1.1327888023638113	-0.48010383793408473	0.0
53	1.784333333333333	1.0017830248973218	-0.6335028214451104	0.0	0.9456705140010405	-0.6293098724701494	0.0	0.9398993597976916	-0.8715480603309148	0.0	0.9709052475971364	-1.0751980681892703	0.0	1.006467987576683	-1.1123712711936373	0.0	0.9527925060884219	-1.1114286431117364	0.0	0.9720265521788092	-1.0941681146446502	0.0	1.0585652231168339	-0.6302570854070159	0.0	1.0471576677971697	-0.8739314500717387	0.0	1.0505847586027615	-1.065256224269451	0.0	0.9969977583179577	-1.0884318701922298	0.0	1.0369897680521125	-1.0912557709379676	0.0	1.028954237539221	-1.0750322933062937	0.0	1.0135810997116828	-0.272693751285268	0.0	1.0100946992442872	-0.13164143834713712	0.0	1.0152691111307344	-0.20551022388198048	0.0	0.9228100482032611	-0.348661149981492	0.0	0.871580986480362	-0.48024776748174586	0.0	0.8663617828454657	-0.582604370349565	0.0	1.1451051377666845	-0.33722402351245107	0.0	1.2064030734403477	-0.47709011252215133	0.0	1.1340567296219823	-0.48517913664213475	0.0
54	1.8179999999999998	1.0022953506245815	-0.6352169136276316	0.0	0.9471409150474058	-0.6307726395166603	0.0	0.9392474691956914	-0.8681034395627483	0.0	0.9674768460070158	-1.0678971838281348	0.0	1.0038249780166926	-1.104839895701249	0.0	0.9535880653695256	-1.105270114724472	0.0	0.9691883399459146	-1.086801588538834	0.0	1.0582536207922015	-0.6319627750696529	0.0	1.045188598655824	-0.8715274451442371	0.0	1.042703643182616	-1.0664094782029816	0.0	0.9935419565399494	-1.089818047749015	0.0	1.0304656274609685	-1.0929534238518206	0.0	1.0265063228227311	-1.076822042081396	0.0	1.0158043216155541	-0.2806162896730974	0.0	1.0135060985363242	-0.14136544349340818	0.0	1.0180894144316313	-0.21475831172927803	0.0	0.9224925181711044	-0.3528413310709275	0.0	0.8722021031927985	-0.48321086077791536	0.0	0.8633404578516828	-0.5833747951654227	0.0	1.140340867211895	-0.3430617254026061	0.0	1.203151446798933	-0.48115132349749046	0.0	1.1305721063381413	-0.49441482099199624	0.0
55	1.8516666666666666	1.0028012835641047	-0.636709941213958	0.0	0.9486903546015767	-0.6320221809469595	0.0	0.9399464548610365	-0.8656745702756138	0.0	0.9645537063856566	-1.0598215002055587	0.0	0.9982731475902697	-1.0989168907737779	0.0	0.9550911646614607	-1.1001973392330862	0.0	0.9669269400769116	-1.0785431928898093	0.0	1.0579937232799626	-0.6328929421963527	0.0	1.0446123707013057	-0.8699645108010846	0.0	1.0358528192116032	-1.0663444449292134	0.0	0.9936960509094441	-1.0913145628505319	0.0	1.0274671255511012	-1.0938983694256161	0.0	1.0256898412502884	-1.077793427273976	0.0	1.0169912880268486	-0.28741700315950747	0.0	1.016021341414324	-0.15003360252153225	0.0	1.0203086972341968	-0.222745688166103	0.0	0.9202293021128525	-0.35626758078659426	0.0	0.8717754551795627	-0.48656172375336687	0.0	0.8612068152701544	-0.5852161325510553	0.0	1.133709107316347	-0.3477922233190999	0.0	1.196536627425853	-0.48392501482389794	0.0	1.1265995620857365	-0.5052580814904297	0.0
56	1.885333333333333	1.0033529887002453	-0.6375135063660945	0.0	0.9503364547255508	-0.6325506082305237	0.0	0.9422042973078427	-0.8635955619452492	0.0	0.9634895924935114	-1.0523841382569556	0.0	0.9940862658045825	-1.0950193432535567	0.0	0.9573205989669126	-1.0963708126789948	0.0	0.9662442606817396	-1.0708872638799083	0.0	1.0578300174738808	-0.6326727674288023	0.0	1.0452190228743703	-0.8682323051843119	0.0	1.0319795940859147	-1.0656648772124135	0.0	0.9966265033229916	-1.092863156658586	0.0	1.0278339282735094	-1.0942066787840297	0.0	1.0263910692777758	-1.0782660977393956	0.0	1.0172467590173402	-0.2924384903279293	0.0	1.0175141963543146	-0.1568546942480301	0.0	1.021789111620705	-0.22888659041554182	0.0	0.917678015338786	-0.3589231621938424	0.0	0.8715851840328751	-0.4898056318699236	0.0	0.8616302824814532	-0.587402592588262	0.0	1.1274267993196028	-0.3512542095594857	0.0	1.1886235195593156	-0.4851976392059983	0.0	1.1239814653187503	-0.5161450281508256	0.0
57	1.9189999999999998	1.0040566555166663	-0.6375321326086308	0.0	0.9520860570454319	-0.6323326818715606	0.0	0.9458629088880101	-0.8613900130813426	0.0	0.964331075680768	-1.0467444010754832	0.0	0.992701858351864	-1.0929764641367234	0.0	0.9601527026598655	-1.093846639382379	0.0	0.9670206640839702	-1.0651522274375171	0.0	1.057862888109987	-0.6314346938888429	0.0	1.0469323031250974	-0.8657099726305288	0.0	1.0314810099899208	-1.064745181217343	0.0	1.0013071327385785	-1.0943590298257844	0.0	1.031215636046901	-1.0941086503486201	0.0	1.0285647336280546	-1.0785432538588244	0.0	1.0167198028535145	-0.2957448871708783	0.0	1.0180222782996506	-0.1616985027027553	0.0	1.0224953352462485	-0.23324452452460231	0.0	0.9154254342744155	-0.3609041483253679	0.0	0.8717625439630342	-0.49270951413793346	0.0	0.8650740096161081	-0.5897455298987075	0.0	1.1221796168888356	-0.3534966295426194	0.0	1.1802708083734854	-0.48530442788676453	0.0	1.1230251882886555	-0.5265760646250377	0.0
58	1.9526666666666666	1.0049868800750714	-0.6370452646617812	0.0	0.9539050298975768	-0.6317943336645396	0.0	0.9504228616835687	-0.85897529997621	0.0	0.9666080876776684	-1.043559866463711	0.0	0.9937683699312695	-1.0924101862853466	0.0	0.9632195250178226	-1.0925333029009672	0.0	0.9688862154528617	-1.0620941668644157	0.0	1.0581867498658224	-0.6297652212978411	0.0	1.0497541632340817	-0.8623448747661078	0.0	1.0339195602710682	-1.0637041973742298	0.0	1.0068708203398269	-1.095596764546094	0.0	1.0371082256409472	-1.093803699365512	0.0	1.0320729926674999	-1.078670187678707	0.0	1.0155488605617813	-0.2980630522254371	0.0	1.017706857538092	-0.16514445708546718	0.0	1.0225113651884712	-0.23650223496736872	0.0	0.9135010523478727	-0.3626294902960953	0.0	0.8718751316193868	-0.49550510189679353	0.0	0.8712576106932275	-0.5924272388645849	0.0	1.1178319067884868	-0.3550279747320457	0.0	1.1717816677218855	-0.4851373144182673	0.0	1.123326285160446	-0.5367381536246557	0.0
